<?xml version="1.0" encoding="iso-8859-1"?>
<!-- Generator: Adobe Illustrator 16.0.0, SVG Export Plug-In . SVG Version: 6.00 Build 0)  -->
<!DOCTYPE svg PUBLIC "-//W3C//DTD SVG 1.1//EN" "http://www.w3.org/Graphics/SVG/1.1/DTD/svg11.dtd">
<svg version="1.1" id="Calque_1" xmlns="http://www.w3.org/2000/svg" xmlns:xlink="http://www.w3.org/1999/xlink" x="0px" y="0px"
	 width="383.953px" height="383.953px" viewBox="0 0 383.953 383.953" style="enable-background:new 0 0 383.953 383.953;"
	 xml:space="preserve">
<g id="Forme_1_copie_1_" style="enable-background:new    ;">
	<g id="Forme_1_copie">
		<g>
			<path style="fill:#F54127;" d="M337.564,57.025l-157.572-0.36c-15.609,0,0.98-26.628-19.432-26.628
				c-12.486,0-116.195,0-116.195,0s-30.616,0-30.616,35.263c0,35.264,0,162.644,0,200.787c0,38.142,32.777,38.142,32.777,38.142
				h291.759c0,0,32.417,0,32.417-31.664s0-183.515,0-183.515S368.301,57.025,337.564,57.025z"/>
		</g>
	</g>
</g>
<g id="Forme_1_1_" style="enable-background:new    ;">
	<g id="Forme_1">
		<g>
			<path style="fill:#727272;" d="M340.086,84.013c0,0-148.161,0-160.647,0c-20.411,0-14.647,26.987-30.256,26.987H46.887
				c-30.736,0-33.138,32.025-33.138,32.025s0,151.848,0,183.514c0,31.665,32.417,31.665,32.417,31.665h291.759
				c0,0,32.777,0,32.777-38.142V119.276C370.703,84.013,340.086,84.013,340.086,84.013z"/>
		</g>
	</g>
</g>
<path style="fill:#181818;" d="M261.543,266.914c-2.592,9.922-22.499,28.805-29.488,37.931c-6.957,9.156,0.709,19.208-12.146,15.993
	c-12.823-3.184-16.409-2.605-29.708-1.904c-13.144,0.732-10.32-0.35-18.558,3.117c-8.204,3.436-35.795-42-38.042-50.49
	c-2.182-8.455-3.241-7.438,2.502-16.563c5.669-9.156,6.539-18.217,14.07-29.286c7.532-11.126,16.277-16.792,15.637-25.272
	c-2.502-31.508-4.421-47.283,10.608-54.56c14.292-6.935,26.278-2.8,30.987-0.448c2.052,1.018,6.22,3.02,9.297,6.487
	c3.076,3.402,5.865,8.522,7.432,15.01c3.209,13.006-1.345,8.709,2.307,23.621c3.594,14.88,10.896,22.198,19.807,33.958
	c8.941,11.764,18.238,31.191,15.283,42.415"/>
<path style="fill:#F9F9F9;" d="M178.211,189.743c1.587-0.296,2.402-1.782,2.996-3.168c1.053-2.454,2.689-4.731,2.789-7.513
	c0.094-2.618-0.82-5.114-2.414-7.195c-1.341-1.751-3.257-2.914-5.472-2.99c-2.468-0.084-4.226,1.962-4.996,4.048
	c-1.263,3.427-0.95,7.274-0.015,10.739c0.709,2.628,2.247,5.535,5.138,6.178c0.65,0.146,1.341,0.111,1.973-0.109"/>
<path style="fill:#181818;" d="M176.054,174.855c1.148,0,2.605,0.701,3.337,1.686c0.765,0.985,1.27,2.384,1.27,3.971
	c0,2.32-0.252,4.9-1.749,5.69c-0.481,0.187-1.499,0.48-2.069,0.48c-1.302,0-1.433-0.83-2.669-2.035
	c-0.447-0.415-1.717-2.548-1.717-4.29c0-1.083-0.252-2.637,0.766-4.037c0.7-1.018,1.586-1.498,2.832-1.498"/>
<path style="fill:#F9F9F9;" d="M202.279,190.035c2.728-0.223,5.797-0.91,7.466-3.246c2.805-3.927,2.61-9.468,0.313-13.601
	c-1.182-2.125-2.611-4.473-5.037-5.266c-3.133-1.024-6.977-0.682-9.469,1.661c-2.289,2.151-3.704,5.275-3.532,8.477
	c0.104,1.953,0.5,3.953,1.792,5.493c1.48,1.767,2.69,3.869,4.768,5.021c1.161,0.645,2.389,1.172,3.675,1.493"/>
<path style="fill:#181818;" d="M201.807,174.692c2.922,0,4.607,2.45,5.187,5.567c0.22,1.433-0.099,3.053-1.017,4.2
	c-1.052,1.335-2.924,2.1-4.422,2.1c-1.466,0-3.053,0.22-3.938-0.855c-0.854-1.147-1.019-3.622-1.019-5.437
	c0-2.002,0.635-3.435,1.687-4.55c0.83-0.831,2.286-1.018,3.532-1.018"/>
<path style="fill:#676767;" d="M203.143,176.41c-0.295-0.127-0.541-0.126-0.699,0.017h-0.031c-0.604,0.545-0.033,0.858,0.667,1.526
	c0.384,0.416,0.671,1.593,1.239,1.113c0.644-0.44,0.607-1.078-0.189-1.908C203.777,176.792,203.438,176.537,203.143,176.41
	L203.143,176.41z M177.372,177.173c-0.435-0.119-0.838-0.041-1.017,0.207c-0.351,0.504,0.077,0.984,0.842,2.035
	c0.797,1.083,0.511,2.319,1.399,2.035c0.349-0.098,0.417-2.321-0.064-3.338C178.276,177.603,177.814,177.293,177.372,177.173
	L177.372,177.173z M188.914,178.159c-0.401-0.059-0.746-0.014-1.098,0.08c-1.334,0.317-1.112,0.861,0.287,1.081
	c0.83,0.163,0.603,0.13,1.685,0.35c1.14,0.253,1.622-0.416,0.573-0.985C189.771,178.378,189.316,178.218,188.914,178.159
	L188.914,178.159z"/>
<path style="fill:#F9F9F9;" d="M184.446,206.98c-5.055,0.188-11.672-13.478-11.892-7.951v9.475c0,3.02-2.703,3.271-5.877,7.822
	c-3.201,4.988-4.67,9.896-6.356,14.888c-1.555,5.503-7.253,12.306-8.555,17.81c-1.334,5.47-3.629,7.813-3.629,15.123
	c0,3.101,1.212,6.373,3.564,8.213c2.353,1.815,4.737,3.533,8.425,6.586c3.907,3.238,11.956,8.709,13.039,10.459
	c1.147,1.75,1.147,5.656,0.448,6.934c-0.699,1.238-8.399,1.938-8.399,1.938s6.935,7.777,8.017,8.738
	c1.017,0.952,5.372,5.566,23.051,2.449c9.987-1.814,17.679-7.842,23.271-12.863c7.221-6.643,3.564-8.522,4.484-11.828
	c1.367-4.801,5.787-6.584,6.771-11.987c0.129-0.767,0.383-1.336,1.146-2.55c1.115-1.529,0.855-4.77,0.855-7.635
	c0-7.635-0.92-15.295-2.801-20.983c-1.718-5.339-4.421-9.06-6.74-13.861c-4.639-9.571-4.42-13.896-8.586-19.999
	c-4.705-7.057-2.386-11.761-8.679-11.479c-7.821,0.416-14.146,10.494-21.553,10.777"/>
<path style="fill:#F54127;" d="M187.116,181.985c2.832-0.317,6.739,0.317,8.521,1.555c1.652,1.148,2.834,1.782,4.355,2.223
	c5.055,1.554,11.762,2.319,11.443,6.617c-0.351,5.151-1.938,7.438-6.486,8.808c-3.654,1.051-10.174,6.177-15.197,6.177
	c-2.254,0-5.404,0.13-7.22-0.513c-1.75-0.569-4.2-2.521-7.057-4.752c-2.89-2.223-5.535-4.607-5.624-7.66
	c-0.131-3.214,2.132-4.29,5.307-6.902c1.653-1.368,4.705-3.688,6.772-4.672c1.937-0.919,3.183-0.732,5.185-0.953"/>
<path style="fill:#FFFFFF;" d="M180.595,185.771c-0.162,0.382,1.05,1.18,1.686,0.634c0.667-0.537,1.433-1.019,1.685-1.18
	c1.18-0.733,0.765-1.27-1.237-0.953c-1.938,0.317-1.938,1.083-2.165,1.499"/>
<path style="fill:#F54127;" d="M261.43,275.225c2.418,3.271-0.066,7.569,1.687,10.174c2.889,4.291,9.06,8.416,11.282,9.621
	c1.586,0.92,3.849,1.783,3.752,4.42c-0.131,3.054-1.719,3.85-2.604,4.672c-1.782,1.686-10.776,5.886-16.76,9.695
	c-7.505,4.834-10.11,6.991-12.56,9.286c-3.817,3.591-7.408,6.171-13.194,6.171c-5.755,0-8.394-2.516-10.142-4.006
	c-1.783-1.465-3.785-5.185-3.59-10.712c0.162-5.534,2.034-10.524,2.922-19.11c0.383-3.688,0.35-8.237,0.35-12.273
	c0-5.121,0.099-8.629,1.238-9.296c2.099-1.237,2.571-1.304,5.055-1.304c2.482,0,3.589,0.131,4.42,0.92
	c0.764,0.701,0.445,1.572,0.188,3.955c-0.221,2.387,0.984,3.15,2.164,4.137c1.205,0.951,2.286,2.191,6.072,2.449
	c5.521,0.377,8.727-1.967,12.65-5.332c1.045-0.895,3.117-4.672,3.533-4.672c0.351,0,2.104-0.725,3.537,1.246"/>
<path style="fill:#F54127;" d="M126.484,280.588c-3.468,2.354-12.34,2.165-14.594,4.926c-2.197,2.768,0.098,6.771,0.033,14.211
	c0,3.184-0.57,5.566-0.953,7.504c-0.57,2.451-0.919,4.168,0.188,5.918c2.002,3.084,5.152,3.883,23.369,7.438
	c9.727,1.905,18.948,6.806,25.086,7.312c6.169,0.414,7.504-1.53,11.257-4.641c3.72-3.15,4.924-2.197,4.803-9.061
	c-0.131-6.869-4.803-8.904-10.11-16.815c-5.307-7.92-6.169-9.376-9.694-14.627c-3.533-5.185-10.524-14.594-14.497-14.69
	c-3.183-0.065-4.957,1.528-6.959,3.435c-2.002,1.905-4.419,6.739-7.92,9.092"/>
<path style="fill:#676767;" d="M230.318,228.788c-0.635-0.021-0.914,0.196-0.73,0.763c0.11,0.335,6.383,2.156,10.176,8.395
	c5.283,8.688,5.303,13.107,3.307,22.638c-0.68,3.248-2.159,5.228-1.971,6.121c-0.341,0.037-0.486,0.019-0.938,0.08
	c-2.32,0.317-3.882,1.444-4.802,2.493c-0.881,0.947-1.881,2.326-1.463,2.783c0.83,0.767,1.529-1.146,2.354-1.781
	c0.798-0.602,2.133-1.938,4.738-1.938c2.637,0,2.482-0.098,2.352-1.018c-0.058-0.545-0.499-0.693-1.207-0.7
	c1.424-1.425,3.445-7.636,3.949-10.364c0.579-3.146,0.688-10.404-1.896-15.501C241.201,234.877,235.74,231.545,230.318,228.788
	L230.318,228.788z M246.838,266.752c-2.67-0.131-2.417,0.508-2.417,0.508c0,1.148,2.487,1.559,4.929,1.908
	c2.354,0.316,4.258,0.766,4.389,3.084c0.098,2.287-0.512,3.939,0.572,3.752c2.318-0.415,3.146-2.764,3.146-3.879
	c0-1.083-1.718-3.051-4.77-4.134C250.434,267.162,248.783,266.809,246.838,266.752L246.838,266.752z"/>
<path style="fill:#FFFFFF;" d="M172.456,197.377c1.083,0.701,1.115,0.798,2.669,1.783c2.515,1.904,6.935,2.352,9.092,2.417
	c4.989,0.731,13.895-3.654,17.395-5.624c1.783-1.237,5.056-3.85,6.291-3.883c0.767,0.766-0.348,0.887-1.937,1.905
	c-2.101,1.433-3.882,2.638-7.09,4.321c-3.401,1.685-8.652,4.453-15.359,4.069c-3.532-0.48-3.565-0.512-5.722-1.555
	C176.494,199.958,173.539,198.492,172.456,197.377"/>
<path style="fill:#FFFFFF;" d="M194.458,185.966c0.162,0.415-1.051,1.18-1.687,0.667c-0.667-0.538-1.433-1.05-1.717-1.18
	c-1.181-0.765-0.732-1.27,1.238-0.953C194.262,184.818,194.262,185.55,194.458,185.966"/>
</svg>
