<?xml version="1.0" encoding="iso-8859-1"?>
<!-- Generator: Adobe Illustrator 16.0.0, SVG Export Plug-In . SVG Version: 6.00 Build 0)  -->
<!DOCTYPE svg PUBLIC "-//W3C//DTD SVG 1.1//EN" "http://www.w3.org/Graphics/SVG/1.1/DTD/svg11.dtd">
<svg version="1.1" xmlns="http://www.w3.org/2000/svg" xmlns:xlink="http://www.w3.org/1999/xlink" x="0px" y="0px"
	 width="383.952px" height="383.952px" viewBox="0 0 383.952 383.952" style="enable-background:new 0 0 383.952 383.952;"
	 xml:space="preserve">
<g id="Forme_1_copie_1_" style="enable-background:new    ;">
	<g id="Forme_1_copie">
		<g>
			<path style="fill:#12B5F0;" d="M341.172,48.369l-164.194-0.375c-16.265,0,1.021-27.747-20.248-27.747
				c-13.011,0-121.078,0-121.078,0s-31.903,0-31.903,36.745c0,36.746,0,169.479,0,209.224c0,39.745,34.155,39.745,34.155,39.745
				h304.019c0,0,33.779,0,33.779-32.995c0-32.996,0-191.227,0-191.227S373.201,48.369,341.172,48.369z"/>
		</g>
	</g>
</g>
<g id="Forme_1_1_" style="enable-background:new    ;">
	<g id="Forme_1">
		<g>
			<path style="fill:#727272;" d="M343.8,76.491c0,0-154.387,0-167.398,0c-21.269,0-15.263,28.121-31.528,28.121H38.28
				c-32.028,0-34.531,33.371-34.531,33.371s0,158.23,0,191.226c0,32.996,33.78,32.996,33.78,32.996h304.019
				c0,0,34.154,0,34.154-39.745V113.236C375.703,76.491,343.8,76.491,343.8,76.491z"/>
		</g>
	</g>
</g>
</svg>
